<mxfile host="app.diagrams.net" agent="Mozilla/5.0 (Windows NT 10.0; Win64; x64) AppleWebKit/537.36 (KHTML, like Gecko) Chrome/134.0.0.0 Safari/537.36" version="26.1.1">
  <diagram name="Страница — 1" id="hi3maOYxdtd5-xxtNOdB">
    <mxGraphModel dx="1114" dy="600" grid="1" gridSize="10" guides="1" tooltips="1" connect="1" arrows="1" fold="1" page="1" pageScale="1" pageWidth="827" pageHeight="1169" math="0" shadow="0">
      <root>
        <mxCell id="0" />
        <mxCell id="1" parent="0" />
        <mxCell id="aCRJITWJ9ehhxMidwkCk-117" style="edgeStyle=orthogonalEdgeStyle;rounded=0;orthogonalLoop=1;jettySize=auto;html=1;" edge="1" parent="1" source="aCRJITWJ9ehhxMidwkCk-116" target="aCRJITWJ9ehhxMidwkCk-118">
          <mxGeometry relative="1" as="geometry">
            <mxPoint x="390" y="130" as="targetPoint" />
          </mxGeometry>
        </mxCell>
        <mxCell id="aCRJITWJ9ehhxMidwkCk-116" value="Начало" style="rounded=1;whiteSpace=wrap;html=1;" vertex="1" parent="1">
          <mxGeometry x="330" y="10" width="120" height="60" as="geometry" />
        </mxCell>
        <mxCell id="aCRJITWJ9ehhxMidwkCk-119" style="edgeStyle=orthogonalEdgeStyle;rounded=0;orthogonalLoop=1;jettySize=auto;html=1;" edge="1" parent="1" source="aCRJITWJ9ehhxMidwkCk-118" target="aCRJITWJ9ehhxMidwkCk-120">
          <mxGeometry relative="1" as="geometry">
            <mxPoint x="390" y="200" as="targetPoint" />
          </mxGeometry>
        </mxCell>
        <mxCell id="aCRJITWJ9ehhxMidwkCk-118" value="Ввести list" style="shape=parallelogram;perimeter=parallelogramPerimeter;whiteSpace=wrap;html=1;fixedSize=1;" vertex="1" parent="1">
          <mxGeometry x="330" y="100" width="120" height="60" as="geometry" />
        </mxCell>
        <mxCell id="aCRJITWJ9ehhxMidwkCk-121" style="edgeStyle=orthogonalEdgeStyle;rounded=0;orthogonalLoop=1;jettySize=auto;html=1;" edge="1" parent="1" source="aCRJITWJ9ehhxMidwkCk-120" target="aCRJITWJ9ehhxMidwkCk-122">
          <mxGeometry relative="1" as="geometry">
            <mxPoint x="390" y="270" as="targetPoint" />
          </mxGeometry>
        </mxCell>
        <mxCell id="aCRJITWJ9ehhxMidwkCk-120" value="option = 1&lt;div&gt;exitprogram = False&lt;/div&gt;" style="rounded=0;whiteSpace=wrap;html=1;" vertex="1" parent="1">
          <mxGeometry x="330" y="200" width="120" height="40" as="geometry" />
        </mxCell>
        <mxCell id="aCRJITWJ9ehhxMidwkCk-123" style="edgeStyle=orthogonalEdgeStyle;rounded=0;orthogonalLoop=1;jettySize=auto;html=1;" edge="1" parent="1" source="aCRJITWJ9ehhxMidwkCk-122" target="aCRJITWJ9ehhxMidwkCk-124">
          <mxGeometry relative="1" as="geometry">
            <mxPoint x="390" y="370" as="targetPoint" />
          </mxGeometry>
        </mxCell>
        <mxCell id="aCRJITWJ9ehhxMidwkCk-122" value="Init(list)" style="shape=process;whiteSpace=wrap;html=1;backgroundOutline=1;" vertex="1" parent="1">
          <mxGeometry x="330" y="270" width="120" height="40" as="geometry" />
        </mxCell>
        <mxCell id="aCRJITWJ9ehhxMidwkCk-125" style="edgeStyle=orthogonalEdgeStyle;rounded=0;orthogonalLoop=1;jettySize=auto;html=1;" edge="1" parent="1" source="aCRJITWJ9ehhxMidwkCk-124" target="aCRJITWJ9ehhxMidwkCk-126">
          <mxGeometry relative="1" as="geometry">
            <mxPoint x="390" y="440" as="targetPoint" />
          </mxGeometry>
        </mxCell>
        <mxCell id="aCRJITWJ9ehhxMidwkCk-124" value="Цикл 1&lt;div&gt;exitProgram = True&lt;/div&gt;" style="strokeWidth=2;html=1;shape=mxgraph.flowchart.loop_limit;whiteSpace=wrap;" vertex="1" parent="1">
          <mxGeometry x="340" y="340" width="100" height="60" as="geometry" />
        </mxCell>
        <mxCell id="aCRJITWJ9ehhxMidwkCk-127" style="edgeStyle=orthogonalEdgeStyle;rounded=0;orthogonalLoop=1;jettySize=auto;html=1;" edge="1" parent="1" source="aCRJITWJ9ehhxMidwkCk-126" target="aCRJITWJ9ehhxMidwkCk-128">
          <mxGeometry relative="1" as="geometry">
            <mxPoint x="390" y="550" as="targetPoint" />
          </mxGeometry>
        </mxCell>
        <mxCell id="aCRJITWJ9ehhxMidwkCk-126" value="DisplayMenu&lt;div&gt;(option,exitprogram)&lt;/div&gt;" style="shape=process;whiteSpace=wrap;html=1;backgroundOutline=1;" vertex="1" parent="1">
          <mxGeometry x="300" y="430" width="180" height="60" as="geometry" />
        </mxCell>
        <mxCell id="aCRJITWJ9ehhxMidwkCk-129" style="edgeStyle=orthogonalEdgeStyle;rounded=0;orthogonalLoop=1;jettySize=auto;html=1;" edge="1" parent="1" source="aCRJITWJ9ehhxMidwkCk-128">
          <mxGeometry relative="1" as="geometry">
            <mxPoint x="390" y="670" as="targetPoint" />
          </mxGeometry>
        </mxCell>
        <mxCell id="aCRJITWJ9ehhxMidwkCk-130" value="false" style="edgeLabel;html=1;align=center;verticalAlign=middle;resizable=0;points=[];" vertex="1" connectable="0" parent="aCRJITWJ9ehhxMidwkCk-129">
          <mxGeometry x="-0.2728" relative="1" as="geometry">
            <mxPoint as="offset" />
          </mxGeometry>
        </mxCell>
        <mxCell id="aCRJITWJ9ehhxMidwkCk-131" style="edgeStyle=orthogonalEdgeStyle;rounded=0;orthogonalLoop=1;jettySize=auto;html=1;" edge="1" parent="1" source="aCRJITWJ9ehhxMidwkCk-128">
          <mxGeometry relative="1" as="geometry">
            <mxPoint x="390" y="1680" as="targetPoint" />
            <Array as="points">
              <mxPoint x="531" y="570" />
            </Array>
          </mxGeometry>
        </mxCell>
        <mxCell id="aCRJITWJ9ehhxMidwkCk-132" value="True" style="edgeLabel;html=1;align=center;verticalAlign=middle;resizable=0;points=[];" vertex="1" connectable="0" parent="aCRJITWJ9ehhxMidwkCk-131">
          <mxGeometry x="-0.581" y="5" relative="1" as="geometry">
            <mxPoint as="offset" />
          </mxGeometry>
        </mxCell>
        <mxCell id="aCRJITWJ9ehhxMidwkCk-128" value="exitprogram" style="rhombus;whiteSpace=wrap;html=1;" vertex="1" parent="1">
          <mxGeometry x="330" y="530" width="120" height="80" as="geometry" />
        </mxCell>
        <mxCell id="aCRJITWJ9ehhxMidwkCk-136" style="edgeStyle=orthogonalEdgeStyle;rounded=0;orthogonalLoop=1;jettySize=auto;html=1;" edge="1" parent="1" source="aCRJITWJ9ehhxMidwkCk-134" target="aCRJITWJ9ehhxMidwkCk-137">
          <mxGeometry relative="1" as="geometry">
            <mxPoint x="390" y="820" as="targetPoint" />
          </mxGeometry>
        </mxCell>
        <mxCell id="aCRJITWJ9ehhxMidwkCk-140" value="True" style="edgeLabel;html=1;align=center;verticalAlign=middle;resizable=0;points=[];" vertex="1" connectable="0" parent="aCRJITWJ9ehhxMidwkCk-136">
          <mxGeometry x="-0.25" y="3" relative="1" as="geometry">
            <mxPoint as="offset" />
          </mxGeometry>
        </mxCell>
        <mxCell id="aCRJITWJ9ehhxMidwkCk-141" style="edgeStyle=orthogonalEdgeStyle;rounded=0;orthogonalLoop=1;jettySize=auto;html=1;" edge="1" parent="1" source="aCRJITWJ9ehhxMidwkCk-134" target="aCRJITWJ9ehhxMidwkCk-143">
          <mxGeometry relative="1" as="geometry">
            <mxPoint x="400" y="1000" as="targetPoint" />
            <Array as="points">
              <mxPoint x="491" y="720" />
              <mxPoint x="491" y="990" />
            </Array>
          </mxGeometry>
        </mxCell>
        <mxCell id="aCRJITWJ9ehhxMidwkCk-142" value="False" style="edgeLabel;html=1;align=center;verticalAlign=middle;resizable=0;points=[];" vertex="1" connectable="0" parent="aCRJITWJ9ehhxMidwkCk-141">
          <mxGeometry x="-0.8883" relative="1" as="geometry">
            <mxPoint as="offset" />
          </mxGeometry>
        </mxCell>
        <mxCell id="aCRJITWJ9ehhxMidwkCk-134" value="option = 1" style="rhombus;whiteSpace=wrap;html=1;" vertex="1" parent="1">
          <mxGeometry x="330" y="680" width="120" height="80" as="geometry" />
        </mxCell>
        <mxCell id="aCRJITWJ9ehhxMidwkCk-138" style="edgeStyle=orthogonalEdgeStyle;rounded=0;orthogonalLoop=1;jettySize=auto;html=1;" edge="1" parent="1" source="aCRJITWJ9ehhxMidwkCk-137" target="aCRJITWJ9ehhxMidwkCk-139">
          <mxGeometry relative="1" as="geometry">
            <mxPoint x="390" y="900" as="targetPoint" />
          </mxGeometry>
        </mxCell>
        <mxCell id="aCRJITWJ9ehhxMidwkCk-137" value="Ввести value" style="shape=parallelogram;perimeter=parallelogramPerimeter;whiteSpace=wrap;html=1;fixedSize=1;" vertex="1" parent="1">
          <mxGeometry x="330" y="800" width="120" height="60" as="geometry" />
        </mxCell>
        <mxCell id="aCRJITWJ9ehhxMidwkCk-139" value="Insert(list,value)" style="shape=process;whiteSpace=wrap;html=1;backgroundOutline=1;" vertex="1" parent="1">
          <mxGeometry x="330" y="890" width="120" height="60" as="geometry" />
        </mxCell>
        <mxCell id="aCRJITWJ9ehhxMidwkCk-144" style="edgeStyle=orthogonalEdgeStyle;rounded=0;orthogonalLoop=1;jettySize=auto;html=1;" edge="1" parent="1" source="aCRJITWJ9ehhxMidwkCk-143" target="aCRJITWJ9ehhxMidwkCk-145">
          <mxGeometry relative="1" as="geometry">
            <mxPoint x="385" y="1140" as="targetPoint" />
          </mxGeometry>
        </mxCell>
        <mxCell id="aCRJITWJ9ehhxMidwkCk-146" style="edgeStyle=orthogonalEdgeStyle;rounded=0;orthogonalLoop=1;jettySize=auto;html=1;" edge="1" parent="1" source="aCRJITWJ9ehhxMidwkCk-143" target="aCRJITWJ9ehhxMidwkCk-149">
          <mxGeometry relative="1" as="geometry">
            <mxPoint x="380" y="1280" as="targetPoint" />
            <Array as="points">
              <mxPoint x="481" y="1055" />
              <mxPoint x="481" y="1240" />
            </Array>
          </mxGeometry>
        </mxCell>
        <mxCell id="aCRJITWJ9ehhxMidwkCk-147" value="False" style="edgeLabel;html=1;align=center;verticalAlign=middle;resizable=0;points=[];" vertex="1" connectable="0" parent="aCRJITWJ9ehhxMidwkCk-146">
          <mxGeometry x="-0.8654" y="-2" relative="1" as="geometry">
            <mxPoint as="offset" />
          </mxGeometry>
        </mxCell>
        <mxCell id="aCRJITWJ9ehhxMidwkCk-143" value="option = 2" style="rhombus;whiteSpace=wrap;html=1;" vertex="1" parent="1">
          <mxGeometry x="320" y="1010" width="130" height="90" as="geometry" />
        </mxCell>
        <mxCell id="aCRJITWJ9ehhxMidwkCk-145" value="Delete(list)" style="shape=process;whiteSpace=wrap;html=1;backgroundOutline=1;" vertex="1" parent="1">
          <mxGeometry x="325" y="1140" width="120" height="60" as="geometry" />
        </mxCell>
        <mxCell id="aCRJITWJ9ehhxMidwkCk-151" style="edgeStyle=orthogonalEdgeStyle;rounded=0;orthogonalLoop=1;jettySize=auto;html=1;" edge="1" parent="1" source="aCRJITWJ9ehhxMidwkCk-148" target="aCRJITWJ9ehhxMidwkCk-152">
          <mxGeometry relative="1" as="geometry">
            <mxPoint x="380" y="1520" as="targetPoint" />
          </mxGeometry>
        </mxCell>
        <mxCell id="aCRJITWJ9ehhxMidwkCk-148" value="Display(list)" style="shape=process;whiteSpace=wrap;html=1;backgroundOutline=1;" vertex="1" parent="1">
          <mxGeometry x="320" y="1400" width="120" height="60" as="geometry" />
        </mxCell>
        <mxCell id="aCRJITWJ9ehhxMidwkCk-150" style="edgeStyle=orthogonalEdgeStyle;rounded=0;orthogonalLoop=1;jettySize=auto;html=1;entryX=0.5;entryY=0;entryDx=0;entryDy=0;" edge="1" parent="1" source="aCRJITWJ9ehhxMidwkCk-149" target="aCRJITWJ9ehhxMidwkCk-148">
          <mxGeometry relative="1" as="geometry" />
        </mxCell>
        <mxCell id="aCRJITWJ9ehhxMidwkCk-149" value="option = 3" style="rhombus;whiteSpace=wrap;html=1;" vertex="1" parent="1">
          <mxGeometry x="320" y="1260" width="120" height="100" as="geometry" />
        </mxCell>
        <mxCell id="aCRJITWJ9ehhxMidwkCk-153" style="edgeStyle=orthogonalEdgeStyle;rounded=0;orthogonalLoop=1;jettySize=auto;html=1;" edge="1" parent="1" source="aCRJITWJ9ehhxMidwkCk-152" target="aCRJITWJ9ehhxMidwkCk-154">
          <mxGeometry relative="1" as="geometry">
            <mxPoint x="380" y="1600" as="targetPoint" />
          </mxGeometry>
        </mxCell>
        <mxCell id="aCRJITWJ9ehhxMidwkCk-152" value="Цикл 1" style="strokeWidth=2;html=1;shape=mxgraph.flowchart.loop_limit;whiteSpace=wrap;direction=west;" vertex="1" parent="1">
          <mxGeometry x="330" y="1490" width="100" height="60" as="geometry" />
        </mxCell>
        <mxCell id="aCRJITWJ9ehhxMidwkCk-157" style="edgeStyle=orthogonalEdgeStyle;rounded=0;orthogonalLoop=1;jettySize=auto;html=1;" edge="1" parent="1" source="aCRJITWJ9ehhxMidwkCk-154" target="aCRJITWJ9ehhxMidwkCk-158">
          <mxGeometry relative="1" as="geometry">
            <mxPoint x="385" y="1700" as="targetPoint" />
          </mxGeometry>
        </mxCell>
        <mxCell id="aCRJITWJ9ehhxMidwkCk-154" value="Вывести (Выход)" style="shape=parallelogram;perimeter=parallelogramPerimeter;whiteSpace=wrap;html=1;fixedSize=1;" vertex="1" parent="1">
          <mxGeometry x="320" y="1600" width="130" height="60" as="geometry" />
        </mxCell>
        <mxCell id="aCRJITWJ9ehhxMidwkCk-158" value="Конец" style="rounded=1;whiteSpace=wrap;html=1;" vertex="1" parent="1">
          <mxGeometry x="325" y="1690" width="120" height="50" as="geometry" />
        </mxCell>
      </root>
    </mxGraphModel>
  </diagram>
</mxfile>
